<svg width="200" height="200" viewBox="0 0 200 200" fill="none" xmlns="http://www.w3.org/2000/svg">
  <!-- Floral corner decoration in soft blue line art style -->
  <g opacity="0.3" stroke="#94ABB9" stroke-width="1.5" fill="none">
    <!-- Large flower -->
    <circle cx="40" cy="40" r="15"/>
    <circle cx="40" cy="40" r="8"/>
    <circle cx="30" cy="30" r="6"/>
    <circle cx="50" cy="30" r="6"/>
    <circle cx="30" cy="50" r="6"/>
    <circle cx="50" cy="50" r="6"/>
    
    <!-- Medium flowers -->
    <circle cx="80" cy="30" r="10"/>
    <circle cx="80" cy="30" r="5"/>
    <circle cx="30" cy="80" r="10"/>
    <circle cx="30" cy="80" r="5"/>
    
    <!-- Small flowers -->
    <circle cx="100" cy="20" r="7"/>
    <circle cx="20" cy="100" r="7"/>
    <circle cx="60" cy="60" r="5"/>
    
    <!-- Leaves and stems -->
    <path d="M 40 55 Q 45 70 40 85" stroke-linecap="round"/>
    <path d="M 55 40 Q 70 45 85 40" stroke-linecap="round"/>
    <ellipse cx="50" cy="75" rx="8" ry="12" transform="rotate(45 50 75)"/>
    <ellipse cx="75" cy="50" rx="8" ry="12" transform="rotate(-45 75 50)"/>
    
    <!-- Decorative vines -->
    <path d="M 85 45 Q 100 50 115 45 Q 130 40 145 45" stroke-linecap="round"/>
    <path d="M 45 85 Q 50 100 45 115 Q 40 130 45 145" stroke-linecap="round"/>
    
    <!-- Small dots for detail -->
    <circle cx="120" cy="35" r="2"/>
    <circle cx="135" cy="40" r="2"/>
    <circle cx="35" cy="120" r="2"/>
    <circle cx="40" cy="135" r="2"/>
  </g>
</svg>
